<svg width="54" height="54" viewBox="0 0 54 54" fill="none" xmlns="http://www.w3.org/2000/svg">
<g clip-path="url(#clip0_267_8385)">
<path d="M10.8 5.3999H5.40002V10.7999H10.8V5.3999Z" fill="#F5F1E8"/>
<path d="M37.8 0V2.7H35.1V5.4H37.8V16.2H40.5V18.9H37.8V21.6H40.5H43.2V16.2H51.3V18.9H54V16.2V0H37.8ZM51.3 13.5H40.5V2.7H51.3V13.5Z" fill="#F5F1E8"/>
<path d="M48.5999 5.3999H43.2V10.7999H48.5999V5.3999Z" fill="#F5F1E8"/>
<path d="M10.8 43.2002H5.40002V48.6002H10.8V43.2002Z" fill="#F5F1E8"/>
<path d="M40.5 37.7998H37.8V40.4998H40.5V37.7998Z" fill="#F5F1E8"/>
<path d="M27 51.2998H24.3V53.9998H27V51.2998Z" fill="#F5F1E8"/>
<path d="M29.7 40.5H27V43.2H29.7V40.5Z" fill="#F5F1E8"/>
<path d="M29.7 45.8999H27V48.5999H29.7V45.8999Z" fill="#F5F1E8"/>
<path d="M54 32.3999H51.3V35.0999H54V32.3999Z" fill="#F5F1E8"/>
<path d="M2.7 32.3999H0V35.0999H2.7V32.3999Z" fill="#F5F1E8"/>
<path d="M2.7 18.8999H0V21.5999H2.7V18.8999Z" fill="#F5F1E8"/>
<path d="M29.7 2.7002V5.4002H24.3V8.1002H32.4V5.4002V2.7002H29.7Z" fill="#F5F1E8"/>
<path d="M51.3 21.6001V24.3001H45.9V27.0001H37.8V24.3001H35.1V27.0001H29.7V29.7001H37.8V32.4001H32.4H29.7V29.7001H27V32.4001H24.3V29.7001H21.6V32.4001H18.9V35.1001H24.3V37.8001H27V35.1001H32.4V37.8001H29.7V40.5001H32.4V45.9001H35.1V48.6001H37.8V45.9001H45.9V40.5001H48.6V37.8001H45.9V32.4001H40.5V29.7001H45.9V32.4001H48.6V29.7001H51.3V27.0001H54V24.3001V21.6001H51.3ZM43.2 35.1001V43.2001H35.1V35.1001H43.2Z" fill="#F5F1E8"/>
<path d="M35.1 16.2002H32.4V18.9002H29.7V21.6002V24.3002H32.4V21.6002H35.1V18.9002H37.8V16.2002H35.1Z" fill="#F5F1E8"/>
<path d="M35.1 51.2998H29.7V53.9998H35.1V51.2998Z" fill="#F5F1E8"/>
<path d="M24.3 2.7002H21.6V5.4002H24.3V2.7002Z" fill="#F5F1E8"/>
<path d="M45.9 21.6001H43.2V24.3001H45.9V21.6001Z" fill="#F5F1E8"/>
<path d="M48.6 18.8999H45.9V21.5999H48.6V18.8999Z" fill="#F5F1E8"/>
<path d="M13.5 32.3999H10.8V35.0999H13.5V32.3999Z" fill="#F5F1E8"/>
<path d="M16.2 51.3001V40.5001H18.9V37.8001V35.1001H16.2V37.8001H8.1V35.1001H5.4H2.7V37.8001H0V54.0001H16.2H21.6V51.3001H16.2ZM13.5 51.3001H2.7V40.5001H13.5V51.3001Z" fill="#F5F1E8"/>
<path d="M18.9 16.2002H16.2V18.9002H18.9V16.2002Z" fill="#F5F1E8"/>
<path d="M18.9 0H16.2H0V16.2H2.7V18.9H5.4V16.2H8.1V18.9H10.8V16.2H16.2V10.8H18.9V8.1H16.2V2.7H18.9H21.6V0H18.9ZM13.5 13.5H2.7V2.7H13.5V13.5Z" fill="#F5F1E8"/>
<path d="M35.1 8.1001H32.4V10.8001H35.1V8.1001Z" fill="#F5F1E8"/>
<path d="M29.7 0H27V2.7H29.7V0Z" fill="#F5F1E8"/>
<path d="M32.4 16.1998V13.4998H29.7V10.7998H27V13.4998H21.6V10.7998H18.9V13.4998V16.1998H21.6V21.5998H13.5V18.8998H10.8V21.5998H2.7V24.2998H8.1V26.9998H0V29.6998H8.1V32.3998H10.8V29.6998H13.5V32.3998H16.2V29.6998H21.6V26.9998H18.9V24.2998H21.6H24.3V26.9998H27H29.7V24.2998H27V21.5998H24.3V16.1998H32.4ZM16.2 26.9998H10.8V24.2998H16.2V26.9998Z" fill="#F5F1E8"/>
<path d="M24.3 43.1998V40.4998V37.7998H21.6V40.4998H18.9V43.1998H21.6V45.8998H18.9V48.5998H24.3V45.8998H27V43.1998H24.3Z" fill="#F5F1E8"/>
<path d="M48.6 48.5999V45.8999H45.9V48.5999H37.8V51.2999H43.2V53.9999H45.9V51.2999H51.3V53.9999H54V51.2999V48.5999H48.6Z" fill="#F5F1E8"/>
<path d="M51.3 37.7998V40.4998H48.6V43.1998H54V40.4998V37.7998H51.3Z" fill="#F5F1E8"/>
</g>
<defs>
<clipPath id="clip0_267_8385">
<rect width="54" height="54" fill="white"/>
</clipPath>
</defs>
</svg>
