<svg width="611" height="12" viewBox="0 0 611 12" fill="none" xmlns="http://www.w3.org/2000/svg">
<path d="M205.193 2.81027C206.574 2.82896 207.954 2.84763 209.597 2.79429C210.965 2.74409 212.607 2.69076 213.981 2.675C216.181 2.64979 217.576 2.73734 218.454 3.00337C220.384 3.01575 222.583 2.99054 224.515 3.00292C225.063 2.99662 225.626 3.05918 226.184 3.08732C226.184 3.08732 226.465 3.1186 226.472 3.15304C226.478 3.18747 226.21 3.22506 226.21 3.22506C223.214 3.39747 220.719 3.32252 218.728 3.00022C217.38 3.15372 215.745 3.24151 213.827 3.29799C205.588 3.42697 197.637 3.62165 189.618 3.47199C188.512 3.45016 187.413 3.46276 186.313 3.47537C183.007 3.47875 179.709 3.51657 176.404 3.51994C172.55 3.52963 168.976 3.57059 165.436 3.78373C164.075 3.86836 162.426 3.88727 160.777 3.90617C156.09 3.89087 151.692 3.94129 147.046 4.1326C145.953 4.17964 144.847 4.15781 143.748 4.17042C142.648 4.18302 141.535 4.12676 141.233 3.99217C140.912 3.75427 139.525 3.70115 137.868 3.68563C133.999 3.62643 131.023 3.90215 128.32 4.17471C127.785 4.24989 127.255 4.35949 127 4.46595C126.236 4.78533 124.599 4.8731 122.401 4.89831C121.851 4.90462 121.027 4.91407 120.477 4.92037C116.615 4.89562 113.048 4.97102 109.502 5.14972C107.316 5.2438 105.66 5.22828 103.984 5.10945C102.865 5.01874 102.047 5.06262 101.537 5.27555C100.739 5.42274 99.928 5.50107 98.2788 5.51998C97.1792 5.53258 96.0797 5.54519 94.9735 5.52336C93.8741 5.53596 92.7678 5.51413 91.6684 5.52673C76.5636 5.76892 61.4186 5.8045 46.3071 6.01224C44.6579 6.03116 42.7337 6.05321 41.0845 6.07212C41.0912 6.10655 40.823 6.14414 40.823 6.14414C42.4856 6.19411 44.1417 6.20963 45.8109 6.29403C47.2054 6.38159 48.0568 6.50987 49.7194 6.55983C49.9943 6.55669 50.0011 6.59112 50.2826 6.62241C50.2893 6.65685 50.5708 6.68812 50.5708 6.68812C50.3026 6.72572 50.316 6.79459 49.7729 6.83532C49.5048 6.87291 48.955 6.87922 48.6868 6.9168C43.4709 7.01111 38.2617 7.13985 33.019 7.09642C28.0511 7.04984 23.1167 7.17542 18.1823 7.30102C18.1957 7.36989 18.4773 7.40117 19.0271 7.39487C24.8062 7.36313 30.5919 7.36583 36.0827 7.26837C37.7319 7.24946 39.6561 7.2274 41.312 7.24293C44.8988 7.27083 48.7538 7.26116 52.602 7.21704C54.801 7.19183 57 7.16662 59.2191 7.24472C59.494 7.24156 59.5007 7.276 59.5074 7.31044C59.5141 7.34487 59.5208 7.37931 59.2458 7.38246C58.4414 7.49522 57.3418 7.50782 56.2424 7.52043C49.3704 7.59921 42.4919 7.64355 35.8882 7.68474C33.4142 7.71311 30.9269 7.6726 28.7279 7.6978C23.7803 7.75453 19.1073 7.80809 14.1663 7.89926C15.8423 8.01809 17.2033 7.93346 18.8525 7.91456C21.0515 7.88935 23.2572 7.89857 25.2014 7.97982C27.1457 8.06108 29.3513 8.07029 31.5503 8.04509C35.6735 7.99782 39.8033 7.98498 44.2013 7.93457C50.2553 7.89968 56.0277 7.8335 62.0883 7.83304C66.4997 7.8515 70.891 7.76665 75.2957 7.75066C77.2199 7.7286 79.144 7.70654 81.3429 7.68134C90.7022 7.64307 100.343 7.63608 109.702 7.59781C114.107 7.58183 118.505 7.53141 122.909 7.51542C126.758 7.47131 130.331 7.43035 134.186 7.42067C143.545 7.3824 153.186 7.37541 162.545 7.33714C164.75 7.34637 166.95 7.32116 169.148 7.29594C175.196 7.22662 180.975 7.19488 187.042 7.22886C187.867 7.21941 188.698 7.24439 189.798 7.23179C201.624 7.13073 213.477 7.1674 225.31 7.10077C233.569 7.0751 241.562 7.08702 249.56 7.13339C256.176 7.16107 262.78 7.11987 269.398 7.14755C276.289 7.17207 282.9 7.16532 289.792 7.18984C297.509 7.20492 304.957 7.25758 312.935 7.20063C320.638 7.14684 328.362 7.19634 335.81 7.249C345.464 7.31089 355.118 7.37278 364.758 7.3658C368.339 7.35926 371.651 7.39032 375.238 7.41822C384.06 7.45513 392.883 7.49204 401.43 7.53209C412.459 7.57822 423.22 7.66193 434.248 7.70807C440.041 7.7452 445.565 7.81992 451.357 7.85705C459.637 7.93469 467.911 7.9779 476.19 8.05554C482.532 8.08637 488.881 8.15164 495.224 8.18247C495.773 8.17617 496.604 8.20115 497.154 8.19484C507.103 8.35689 517.031 8.41562 527.25 8.54008C534.704 8.62718 541.885 8.71742 549.346 8.83896C555.977 8.93553 562.868 8.96007 569.513 9.12545C570.063 9.11913 570.344 9.15044 570.894 9.14411C580.535 9.13713 590.175 9.13015 599.762 8.8477C600.312 8.84139 601.13 8.7975 601.68 8.7912C605.24 8.68137 607.117 8.41825 607.861 7.99558C608.358 7.71379 608.304 7.4383 608.526 7.15967C609.987 6.17655 607.876 5.23441 606.321 4.3204C606.012 4.15138 605.436 4.01993 604.86 3.8885C603.7 3.59119 601.99 3.30016 601.099 2.96527C600.214 2.6648 597.969 2.44896 595.199 2.37716C592.706 2.30221 589.943 2.26486 587.456 2.22434C584.969 2.18384 582.213 2.18091 579.458 2.17799C578.908 2.18428 578.084 2.19374 577.526 2.16561C571.439 2.02832 565.378 2.02877 559.291 1.89148C550.442 1.71684 541.613 1.64549 532.508 1.57731C530.021 1.5368 527.265 1.53387 524.778 1.49337C516.498 1.41573 508.219 1.33808 499.945 1.29488C494.984 1.28272 490.01 1.2017 485.041 1.15512C477.319 1.1056 469.85 0.949636 462.147 1.00344C460.498 1.02235 458.56 0.975535 456.904 0.96C445.319 0.885742 433.734 0.811473 422.149 0.737214C420.493 0.72168 418.569 0.743738 416.94 0.865953C415.042 1.02576 413.118 1.04782 411.194 1.06988C409.82 1.08563 408.439 1.06695 407.857 0.901069C407.273 0.735196 406.16 0.678927 404.779 0.660251C397.612 0.638869 390.445 0.617498 383.003 0.599269C373.631 0.568669 364.259 0.538069 354.886 0.507469C348.818 0.473487 342.483 0.477087 336.422 0.477545C334.767 0.462022 333.398 0.512204 331.75 0.53112C331.482 0.568702 331.763 0.599989 332.319 0.628123C332.601 0.6594 332.882 0.690687 333.171 0.756415C333.46 0.822131 332.654 0.934887 332.105 0.941193C327.727 1.09492 323.329 1.14533 318.911 1.09245C313.668 1.04902 308.425 1.00558 303.183 0.962149C300.146 0.927938 297.116 0.928167 294.092 0.962825C289.694 1.01325 285.302 1.09811 280.898 1.11409C276.506 1.19894 273.181 1.09901 269.869 1.06796C268.763 1.04613 267.657 1.0243 266.557 1.0369C266.008 1.0432 265.732 1.04636 265.189 1.08709C264.921 1.12467 264.378 1.16542 264.385 1.19985C264.391 1.23429 264.405 1.30316 264.686 1.33444C265.249 1.39701 265.531 1.42829 266.362 1.45328C267.757 1.54083 269.406 1.52193 270.788 1.5406C275.473 1.55591 279.878 1.53992 284.565 1.55522C285.945 1.5739 287.052 1.59573 288.171 1.68644C289.86 1.87414 291.825 2.0587 293.789 2.24326L293.803 2.31213C293.809 2.34656 293.541 2.38415 293.541 2.38415C293.267 2.3873 292.724 2.42804 292.174 2.43434C288.03 2.3783 283.913 2.46 280.019 2.26307C279.187 2.23809 278.363 2.24755 277.539 2.25699C276.713 2.26645 275.882 2.24147 275.044 2.18205C273.918 2.05691 272.812 2.03508 272.007 2.14784C270.391 2.33893 268.467 2.36099 266.543 2.38305C263.513 2.38327 260.469 2.31463 257.942 2.0675C257.379 2.00494 256.822 1.9768 256.266 1.94867C255.435 1.92369 254.328 1.90186 253.785 1.94259C251.338 2.10869 248.576 2.07133 246.095 2.06527C241.684 2.04681 238.426 2.29124 236.32 2.79854C237.44 2.88925 238.553 2.94552 239.398 3.03937C239.954 3.06751 239.706 3.2084 239.163 3.24913C236.977 3.34321 235.85 3.21807 236.072 2.93944C236.059 2.87056 236.327 2.83298 236.314 2.76411C233.492 2.41683 229.864 2.18231 226.78 1.90705C225.118 1.85709 224.306 1.93541 223.214 1.98245C218.299 2.21135 213.666 2.47154 208.431 2.46254C207.057 2.47829 205.681 2.49405 204.576 2.47222C200.707 2.41303 196.578 2.42587 192.737 2.50441C189.437 2.54223 186.132 2.5456 182.82 2.51454C177.304 2.47427 172.637 2.56227 166.61 2.73491C169.151 3.0509 172.475 3.15083 176.049 3.10987C177.698 3.09096 179.629 3.10333 181.271 3.05C186.762 2.95253 192.26 2.88951 197.784 2.96423C200.278 3.03917 202.739 2.94194 205.193 2.81027ZM320.225 2.18179C319.399 2.19124 318.849 2.19755 318.568 2.16626C312.775 2.12913 306.956 1.95425 301.171 1.95156C300.896 1.95471 300.608 1.88899 300.327 1.8577C299.763 1.79513 300.004 1.6198 300.823 1.57592C302.733 1.48499 304.657 1.46293 306.595 1.50974C309.082 1.55025 311.287 1.55948 313.761 1.53111C315.685 1.50905 317.617 1.52144 319.548 1.53381C322.859 1.56487 326.165 1.56149 329.463 1.52367C330.837 1.50792 332.5 1.55788 333.881 1.57656C334.156 1.57342 334.719 1.63598 334.726 1.67042C334.733 1.70485 334.471 1.77687 333.921 1.78318C332.285 1.87095 330.354 1.85858 329.006 2.01208C327.66 2.16557 326.54 2.07488 325.688 1.94659C324.556 1.78701 323.463 1.83406 322.108 1.95312C321.586 2.09716 320.767 2.14105 320.225 2.18179ZM135.803 4.39955C139.376 4.35859 142.125 4.32707 144.626 4.43645C144.907 4.46774 145.189 4.49902 145.47 4.53031C145.752 4.56159 144.947 4.67435 144.123 4.68381C140.288 4.79679 136.708 4.80333 133.108 4.70654C132.832 4.70969 132.826 4.67526 132.551 4.67841C132.545 4.64398 132.263 4.61269 132.263 4.61269C132.256 4.57825 132.511 4.4718 132.786 4.46865C134.154 4.41845 135.528 4.4027 135.803 4.39955ZM204.997 4.64166C203.616 4.62299 201.692 4.64505 200.029 4.59508C199.479 4.60139 198.649 4.57641 198.36 4.51068C198.079 4.4794 197.79 4.41368 197.784 4.37925C197.777 4.34481 198.038 4.27279 198.582 4.23205C198.85 4.19446 199.399 4.18815 199.667 4.15057C202.678 4.04703 205.722 4.11568 208.51 4.29079L208.799 4.3565C208.544 4.46296 208.282 4.53499 208.008 4.53814C207.19 4.58203 206.09 4.59462 204.997 4.64166ZM189.283 4.58024C187.627 4.56471 186.253 4.58047 184.596 4.56494C184.046 4.57124 183.49 4.5431 183.195 4.44295C182.907 4.37723 183.986 4.26132 185.086 4.24871C186.736 4.2298 188.66 4.20774 190.315 4.22328C190.59 4.22013 191.147 4.24826 191.428 4.27954C191.71 4.31083 191.997 4.37654 191.73 4.41413C191.736 4.44857 191.475 4.5206 190.925 4.52689C190.657 4.56448 189.833 4.57393 189.283 4.58024ZM74.9405 7.34058C71.9102 7.34081 69.4297 7.33474 66.9558 7.3631C66.406 7.3694 66.1245 7.33812 66.1111 7.26925C66.1044 7.23481 66.3792 7.23166 66.6542 7.2285C69.1213 7.16571 71.3137 7.10606 73.7875 7.07771C75.7117 7.05565 77.6357 7.03359 79.5799 7.11483C79.8549 7.11169 80.1364 7.14297 79.8683 7.18056C79.6 7.21814 79.6135 7.28701 79.3385 7.29016C77.6893 7.30907 76.0401 7.32798 74.9405 7.34058ZM257.324 3.14446C261.308 2.37405 261.642 2.68081 265.276 2.94977C265.551 2.94662 265.557 2.98105 265.564 3.01549C265.571 3.04993 265.853 3.08121 265.577 3.08436C265.316 3.15638 265.048 3.19397 264.774 3.19713C262.306 3.25992 260.107 3.28513 257.887 3.20703C257.613 3.21019 257.331 3.1789 257.324 3.14446ZM279.127 3.34318C277.746 3.3245 276.365 3.30582 274.983 3.28714C274.152 3.26216 273.576 3.13072 273.844 3.09313C274.112 3.05555 274.381 3.01796 274.649 2.98037C276.834 2.88629 279.04 2.89551 280.99 3.0112C281.266 3.00805 281.272 3.04249 281.279 3.07692C281.286 3.11136 281.299 3.18023 281.031 3.21782C280.488 3.25856 279.938 3.26486 279.127 3.34318ZM188.551 6.48681C189.382 6.51179 190.763 6.53047 191.869 6.55229C192.145 6.54915 192.165 6.65245 192.171 6.68689C192.171 6.68689 191.903 6.72447 191.628 6.72762C189.718 6.81856 187.786 6.80618 186.117 6.72178C185.843 6.72493 185.829 6.65606 185.816 6.58719C185.816 6.58719 186.084 6.5496 186.358 6.54645C186.908 6.54015 187.734 6.53069 188.551 6.48681ZM150.893 6.91852C150.061 6.89354 149.237 6.90299 148.406 6.87801C148.131 6.88116 148.111 6.77785 148.104 6.74342C148.104 6.74342 148.372 6.70583 148.366 6.6714C149.727 6.58677 151.376 6.56786 152.764 6.62098C153.038 6.61783 153.059 6.72113 153.34 6.75242C153.34 6.75242 153.072 6.79 153.079 6.82444C152.261 6.86833 151.718 6.90907 150.893 6.91852ZM323.207 3.35553C322.376 3.33055 321.269 3.30872 320.164 3.28689C320.164 3.28689 320.143 3.18358 320.137 3.14914C321.484 2.99564 322.859 2.97988 324.254 3.06744C324.528 3.06429 324.81 3.09557 324.817 3.13C324.823 3.16444 325.112 3.23016 324.843 3.26775C324.568 3.27089 324.025 3.31164 323.207 3.35553ZM77.5353 6.51705C79.1713 6.42927 80.8205 6.41037 82.7581 6.45718C83.0329 6.45403 83.3145 6.48531 83.3145 6.48531C83.3279 6.55418 83.0596 6.59177 82.51 6.59807C81.1356 6.61383 80.0293 6.592 78.6483 6.57332C78.3801 6.61091 78.0918 6.54518 77.5353 6.51705ZM227.711 6.69361C227.435 6.69676 226.886 6.70307 226.604 6.67178C226.322 6.64049 226.041 6.60922 226.035 6.57478C226.028 6.54035 226.57 6.4996 226.839 6.46202C227.114 6.45887 227.664 6.45256 227.939 6.44941C228.213 6.44626 228.776 6.50883 228.783 6.54327C229.065 6.57455 228.254 6.65288 227.711 6.69361ZM246.859 3.1609C246.852 3.12647 246.846 3.09203 247.12 3.08888C247.657 3.0137 248.757 3.0011 249.32 3.06367C249.602 3.09495 249.615 3.16382 249.346 3.20141C249.085 3.27344 248.261 3.28288 247.704 3.25475C247.43 3.2579 247.141 3.19219 246.859 3.1609ZM271.503 6.64024C271.227 6.6434 270.679 6.64969 270.403 6.65284C270.122 6.62156 269.84 6.59028 269.559 6.55899C269.827 6.5214 270.095 6.48382 270.37 6.48066C270.645 6.47751 271.195 6.47122 271.469 6.46806C271.751 6.49934 272.032 6.53063 272.314 6.56192C272.046 6.5995 271.777 6.63709 271.503 6.64024ZM176.216 6.80079C175.94 6.80393 175.384 6.77581 175.109 6.77895C174.827 6.74768 174.54 6.68195 174.532 6.64752C174.525 6.61308 175.062 6.53791 175.338 6.53475C175.886 6.52846 176.712 6.519 177.268 6.54713C177.549 6.57842 177.838 6.64414 177.844 6.67858C177.851 6.71301 177.308 6.75375 177.04 6.79133C176.772 6.82893 176.49 6.79764 176.216 6.80079ZM341.504 1.10954C340.686 1.15343 340.123 1.09085 339.834 1.02514C339.547 0.959422 340.076 0.849807 340.626 0.843502C341.443 0.799614 342.006 0.862189 342.295 0.927905C342.577 0.959193 342.321 1.06565 341.504 1.10954ZM105.358 6.5087C104.808 6.51501 104.533 6.51816 103.977 6.49003C103.695 6.45874 103.414 6.42745 103.132 6.39617C103.407 6.39302 103.4 6.35858 103.675 6.35543C104.225 6.34913 104.493 6.31154 105.05 6.33968C105.874 6.33022 106.712 6.38964 106.451 6.46166C106.176 6.46481 105.626 6.47112 105.358 6.5087ZM155.681 4.62033C154.856 4.62977 154.024 4.60479 154.287 4.53277C154.28 4.49834 154.816 4.42317 155.091 4.42001C155.909 4.37613 156.748 4.43554 156.485 4.50756C156.217 4.54515 155.95 4.58273 155.681 4.62033ZM180.313 3.78575L180.574 3.71373L180.587 3.7826L180.313 3.78575ZM235.126 6.5741C234.85 6.57724 234.85 6.57725 234.569 6.54597C234.563 6.51153 234.563 6.51153 234.831 6.47395C235.105 6.47079 235.105 6.47079 235.387 6.50208C235.387 6.50208 235.118 6.53966 235.126 6.5741Z" fill="#E2DFD9"/>
<path d="M225.312 3.44034C226.954 3.387 228.878 3.36494 230.796 3.30844C230.796 3.30844 231.064 3.27086 231.058 3.23642C231.05 3.20199 230.776 3.20514 230.769 3.1707C230.494 3.17386 230.487 3.13942 230.213 3.14257C223.602 3.14933 216.71 3.1248 210.1 3.13156C209 3.14416 207.901 3.15676 206.808 3.20381C206.534 3.20696 206.265 3.24455 206.547 3.27584C206.553 3.31026 206.842 3.37599 207.123 3.40727C207.405 3.43856 207.955 3.43225 208.236 3.46354C213.466 3.4381 219.245 3.40636 225.312 3.44034Z" fill="#E2DFD9"/>
<path d="M151.531 5.11487C152.905 5.09911 154.554 5.0802 155.929 5.06445C155.929 5.06445 156.197 5.02686 156.19 4.99243C156.184 4.95799 156.177 4.92356 156.177 4.92356C154.769 4.76713 152.824 4.68588 150.894 4.6735C148.963 4.66113 147.328 4.74891 146.268 4.96812C146.275 5.00256 146.006 5.04015 146.006 5.04015C146.295 5.10587 146.583 5.17159 146.858 5.16844C148.514 5.18397 149.888 5.16821 151.531 5.11487C151.538 5.1493 151.538 5.1493 151.531 5.11487Z" fill="#E2DFD9"/>
<path d="M253.678 3.39144C254.77 3.3444 255.589 3.30051 256.681 3.25347C256.956 3.25032 256.95 3.21588 256.942 3.18145C256.935 3.14701 256.64 3.04685 256.366 3.05C254.147 2.9719 252.236 3.06283 250.332 3.1882C250.332 3.1882 250.064 3.22579 250.07 3.26022C250.078 3.29466 250.359 3.32595 250.359 3.32595C251.472 3.38221 252.578 3.40405 253.678 3.39144Z" fill="#E2DFD9"/>
<path d="M295.941 2.5617C290.43 2.55585 286.28 2.46537 282.157 2.51264C281.882 2.5158 281.608 2.51895 281.615 2.55338C281.352 2.6254 281.628 2.62226 282.184 2.65038C286.334 2.74086 290.45 2.65916 295.941 2.5617Z" fill="#E2DFD9"/>
<path d="M254.067 2.55874C257.399 2.69311 260.971 2.65214 264.552 2.64561C262.587 2.46105 261.206 2.44238 254.067 2.55874Z" fill="#E2DFD9"/>
<path d="M137.988 4.89054C137.706 4.85926 137.412 4.7591 137.13 4.72782C136.293 4.6684 135.467 4.67786 134.65 4.72175C134.1 4.72804 133.564 4.80322 133.571 4.83766C133.329 5.01299 135.018 5.20069 136.392 5.18494C137.218 5.17549 137.74 5.03144 137.988 4.89054Z" fill="#E2DFD9"/>
<path d="M119.196 6.00321C119.202 6.03765 119.209 6.07207 119.484 6.06893C120.315 6.09391 121.147 6.1189 121.978 6.14388C122.253 6.14073 122.245 6.10629 122.521 6.10313C122.789 6.06555 122.776 5.99668 122.219 5.96855C121.382 5.90913 120.556 5.91858 119.739 5.96247C119.464 5.96562 119.471 6.00005 119.196 6.00321Z" fill="#E2DFD9"/>
<path d="M308.062 2.56104C306.963 2.57365 306.138 2.58309 305.314 2.59255C306.42 2.61438 306.42 2.61438 308.062 2.56104Z" fill="#E2DFD9"/>
<path d="M321.296 2.61619C321.572 2.61303 321.572 2.61303 321.846 2.60988C321.572 2.61303 321.565 2.57859 321.29 2.58175C321.29 2.58175 321.015 2.5849 320.748 2.62248C321.022 2.61934 321.296 2.61619 321.296 2.61619Z" fill="#E2DFD9"/>
<path d="M111.224 6.0946C111.218 6.06016 111.492 6.05701 111.486 6.02257C111.479 5.98813 111.204 5.99129 111.204 5.99129C110.654 5.99759 110.386 6.03517 110.949 6.09775C110.674 6.1009 110.949 6.09775 111.224 6.0946Z" fill="#E2DFD9"/>
</svg>
