<svg width="95" height="23" viewBox="0 0 95 23" fill="none" xmlns="http://www.w3.org/2000/svg">
<path d="M10 12C12.2091 12 14 10.2091 14 8C14 5.79086 12.2091 4 10 4C7.79086 4 6 5.79086 6 8C6 10.2091 7.79086 12 10 12Z" stroke="#1D1D1B" stroke-width="2" stroke-miterlimit="10" stroke-linecap="square"/>
<path d="M2 22C2 22 4.28571 16 10 16C15.7143 16 18 22 18 22" stroke="#1D1D1B" stroke-width="2" stroke-miterlimit="10" stroke-linecap="round"/>
<mask id="mask0_267_8482" style="mask-type:luminance" maskUnits="userSpaceOnUse" x="36" y="3" width="20" height="20">
<path d="M56 3H36V23H56V3Z" fill="white"/>
</mask>
<g mask="url(#mask0_267_8482)">
<path d="M38.453 6.74782C38.0424 7.15834 37.7168 7.64571 37.4946 8.18209C37.2724 8.71846 37.1581 9.29335 37.1581 9.87392C37.1581 10.4545 37.2724 11.0294 37.4946 11.5658C37.7168 12.1021 38.0424 12.5895 38.453 13L46 20.5471L53.547 13C54.3761 12.1709 54.8419 11.0464 54.8419 9.87392C54.8419 8.70141 54.3761 7.57691 53.547 6.74782C52.718 5.91873 51.5935 5.45295 50.4209 5.45295C49.2484 5.45295 48.1239 5.91873 47.2949 6.74782L46 8.04267L44.7052 6.74782C44.2946 6.33729 43.8073 6.01164 43.2709 5.78947C42.7345 5.56729 42.1596 5.45294 41.5791 5.45294C40.9985 5.45294 40.4236 5.56729 39.8872 5.78947C39.3509 6.01164 38.8635 6.33729 38.453 6.74782Z" stroke="#1D1D1B" stroke-width="2" stroke-linecap="round" stroke-linejoin="round"/>
</g>
<rect x="48.6801" y="1" width="12" height="12" rx="6" fill="#C39A91"/>
<path d="M56.4442 10H52.9802V9.064L55.1082 6.592C55.3162 6.344 55.4042 6.168 55.4042 5.904C55.4042 5.48 55.1562 5.192 54.7162 5.192C54.3722 5.192 54.0202 5.368 54.0202 5.92H52.9802C52.9802 4.88 53.7402 4.256 54.7162 4.256C55.7242 4.256 56.4442 4.888 56.4442 5.912C56.4442 6.464 56.2282 6.76 55.8362 7.216L54.2442 9.064H56.4442V10Z" fill="#1D1D1B"/>
<path d="M74.5305 21.9426L75.789 8.97337H88.1563L89.4697 21.9426H74.5305Z" stroke="#1D1D1B" stroke-width="2" stroke-linecap="round" stroke-linejoin="round"/>
<path d="M84.8509 10.7142V6.90817C84.8509 5.33375 83.5746 4.05743 82.0001 4.05743C80.4257 4.05743 79.1494 5.33375 79.1494 6.90816V10.7142" stroke="#1D1D1B" stroke-width="2" stroke-linecap="round" stroke-linejoin="round"/>
<rect x="83" width="12" height="12" rx="6" fill="#C39A91"/>
<path d="M90.7641 9H87.3001V8.064L89.4281 5.592C89.6361 5.344 89.7241 5.168 89.7241 4.904C89.7241 4.48 89.4761 4.192 89.0361 4.192C88.6921 4.192 88.3401 4.368 88.3401 4.92H87.3001C87.3001 3.88 88.0601 3.256 89.0361 3.256C90.0441 3.256 90.7641 3.888 90.7641 4.912C90.7641 5.464 90.5481 5.76 90.1561 6.216L88.5641 8.064H90.7641V9Z" fill="#1D1D1B"/>
</svg>
