<svg width="20" height="26" viewBox="0 0 20 26" fill="none" xmlns="http://www.w3.org/2000/svg">
<path fill-rule="evenodd" clip-rule="evenodd" d="M8.50581 7.89062C8.59958 7.8788 8.69554 7.88937 8.7851 7.9209C8.87446 7.95244 8.95639 8.00457 9.02436 8.07324C9.09231 8.14199 9.14519 8.22567 9.17866 8.31836C9.21212 8.41108 9.22519 8.51051 9.21772 8.60938L9.67963 25.2656C9.66811 25.4574 9.58873 25.6374 9.45698 25.7705C9.3253 25.9035 9.15125 25.9798 8.9687 25.9844H7.66498C7.45342 25.9852 7.24655 25.917 7.07416 25.7881C6.90177 25.6591 6.77265 25.4761 6.70405 25.2656L2.96479 15.8252C2.82153 15.4705 2.67866 15.4997 2.67866 15.8252L2.21674 25.2656C2.22065 25.3629 2.20537 25.46 2.17182 25.5508C2.13814 25.6417 2.08605 25.725 2.02045 25.7939C1.95493 25.8627 1.87625 25.9168 1.78998 25.9521C1.72519 25.9786 1.65696 25.9946 1.58784 25.999H1.07123C1.00273 25.9947 0.935087 25.9789 0.871039 25.9521C0.785721 25.9165 0.708292 25.8624 0.644477 25.793C0.580724 25.7236 0.53193 25.6406 0.500922 25.5498C0.469924 25.459 0.457484 25.3618 0.464789 25.2656L0.00287515 8.62402C-0.00595725 8.52755 0.00568492 8.43037 0.0360783 8.33887C0.0665182 8.24727 0.115482 8.16351 0.179633 8.09375C0.243747 8.02409 0.321203 7.96961 0.407172 7.93457C0.493223 7.8995 0.585572 7.88455 0.67768 7.89062H1.98041C2.18921 7.89649 2.39247 7.96661 2.56342 8.09277C2.73427 8.21888 2.86612 8.39528 2.94233 8.59961L6.70405 18.0459C6.84718 18.4 6.99005 18.3757 6.99018 18.0459L7.45209 8.62402C7.44967 8.5291 7.46527 8.43422 7.49799 8.3457C7.53074 8.25719 7.58071 8.17668 7.6435 8.1084C7.70628 8.04016 7.7812 7.98562 7.8642 7.94824C7.9472 7.9109 8.03663 7.89129 8.1269 7.89062H8.50581ZM12.3466 7.90039C12.5246 7.92213 12.6907 8.00648 12.8173 8.13965C12.9439 8.27277 13.0242 8.44683 13.0449 8.63379L13.5068 14.6875C13.518 14.8741 13.5921 15.0511 13.7158 15.1855C13.8394 15.3199 14.0046 15.4038 14.1816 15.4219H16.6122C16.7854 15.3878 16.9447 15.2989 17.0693 15.168C17.1937 15.0371 17.2781 14.8694 17.3105 14.6875L17.7724 8.63379C17.7877 8.44627 17.8654 8.27069 17.9912 8.13672C18.1169 8.00277 18.2828 7.91901 18.4609 7.90039H19.3251C19.4955 7.92592 19.6537 8.0088 19.7753 8.13672C19.8969 8.26456 19.9756 8.43045 19.9999 8.60938V25.2656C19.9669 25.449 19.8803 25.6172 19.7519 25.7461C19.6234 25.8751 19.459 25.9582 19.2831 25.9844H18.4609C18.2825 25.9721 18.1145 25.8927 17.9872 25.7607C17.86 25.6287 17.7816 25.453 17.7675 25.2656L17.3056 18.7793C17.2971 18.587 17.2214 18.4045 17.0937 18.2666C16.966 18.1289 16.7947 18.0453 16.6122 18.0312H14.2001C14.0143 18.0473 13.8411 18.137 13.7158 18.2822C13.5906 18.4275 13.5224 18.6175 13.5253 18.8135L13.0634 25.2754C13.038 25.458 12.9553 25.6266 12.829 25.7549C12.7028 25.8832 12.5396 25.9638 12.3652 25.9844H11.5292C11.3578 25.9625 11.1986 25.8791 11.079 25.748C10.9595 25.617 10.8867 25.4466 10.873 25.2656V8.63379C10.8759 8.44761 10.945 8.26944 11.0664 8.13379C11.1877 7.99819 11.3527 7.91487 11.5292 7.90039H12.3466ZM13.4345 2.45508C14.0698 2.23633 14.7411 2.1553 15.4072 2.21582C15.4071 3.2313 15.1805 4.82993 13.956 5.95703C13.6323 6.27679 13.2346 6.50225 12.8027 6.61133C12.3707 6.72039 11.9187 6.70946 11.4921 6.5791C11.3632 6.54512 11.2465 6.4718 11.1562 6.36914C11.0659 6.26646 11.0064 6.13788 10.9843 6C10.9044 5.551 10.9284 5.08847 11.0546 4.65137C11.1809 4.21408 11.4058 3.81482 11.7099 3.48828C12.2128 3.02538 12.7993 2.67379 13.4345 2.45508ZM6.19623 0C6.97625 0.193877 7.70866 0.558819 8.34565 1.07031C8.9826 1.58182 9.51035 2.22859 9.8935 2.96875C10.1294 3.47246 10.2465 4.02852 10.2353 4.58984C10.224 5.15133 10.084 5.70238 9.82807 6.19531C9.76229 6.34124 9.65603 6.46252 9.52338 6.54395C9.3906 6.62545 9.23728 6.66298 9.08393 6.65137C8.53825 6.61266 8.00961 6.43402 7.54487 6.13086C7.08011 5.82762 6.69319 5.40906 6.41791 4.91211C6.07044 4.15054 5.87203 3.32321 5.83393 2.47949C5.79586 1.63582 5.91895 0.792711 6.19623 0Z" fill="#1D1D1B"/>
</svg>
