<svg width="160" height="28" viewBox="0 0 160 28" fill="none" xmlns="http://www.w3.org/2000/svg">
<path fill-rule="evenodd" clip-rule="evenodd" d="M35.9982 8.61523C36.1003 8.60672 36.2028 8.62116 36.299 8.65723C36.3952 8.69336 36.4833 8.75011 36.5558 8.82422C36.6282 8.89825 36.6835 8.9877 36.7189 9.08594C36.7542 9.1842 36.7682 9.28922 36.7599 9.39355L37.2619 22.0273C37.2619 24.2978 37.8584 25.2354 39.3224 25.2354C40.7864 25.2353 41.3634 24.3285 41.3634 22.0273L41.8644 9.39355C41.8602 9.29068 41.8768 9.18779 41.9132 9.0918C41.9497 8.99575 42.0053 8.90806 42.0763 8.83496C42.1473 8.76192 42.2326 8.7049 42.3263 8.66699C42.42 8.62908 42.5205 8.61165 42.6212 8.61523H43.4786C43.5805 8.61918 43.681 8.64381 43.7736 8.6875C43.8658 8.73112 43.9489 8.79269 44.0177 8.86914C44.0866 8.94576 44.1401 9.03599 44.1749 9.13379C44.2011 9.20729 44.2168 9.28449 44.2208 9.3623V21.5459C44.2208 24.0057 43.9552 25.2614 43.1681 26.3018C42.7054 26.8764 42.1145 27.3297 41.4454 27.623C40.7765 27.9163 40.0484 28.0416 39.3224 27.9883C37.6528 27.9883 36.2383 27.3985 35.4562 26.3018C34.6742 25.205 34.3839 23.9797 34.3839 21.5762V9.39355C34.3826 9.19197 34.4583 8.99795 34.5949 8.85254C34.7315 8.70711 34.9182 8.62201 35.1154 8.61523H35.9982ZM149.245 8.34863C153.116 8.34863 153.818 12.0639 153.818 12.623C153.813 12.7885 153.752 12.9478 153.648 13.0742C153.543 13.2004 153.4 13.2871 153.241 13.3203L152.435 13.7197C152.333 13.7477 152.228 13.7653 152.123 13.7715C151.807 13.7714 151.622 13.5862 151.496 13.1865C151.025 11.7997 150.266 11.104 149.22 11.1006C148.973 11.0964 148.727 11.1436 148.498 11.2393C148.269 11.335 148.062 11.478 147.889 11.6582C147.715 11.8384 147.579 12.0525 147.489 12.2881C147.399 12.5236 147.357 12.7756 147.365 13.0283C147.365 14.0533 147.917 14.9246 149.301 16.0469L150.579 17.0723C152.67 18.7532 154.59 20.0907 154.59 23.1348C154.625 26.0356 152.56 27.9883 149.501 27.9883C144.773 27.9883 143.936 23.8171 143.936 23.1504C143.949 22.9649 144.024 22.7894 144.148 22.6533C144.272 22.5173 144.437 22.4288 144.617 22.4023L145.319 22.1816C145.483 22.1302 145.651 22.0943 145.821 22.0742C146.112 22.0744 146.292 22.2387 146.398 22.6895C146.542 23.4154 146.928 24.0679 147.49 24.5352C148.053 25.0023 148.756 25.2559 149.481 25.252C149.763 25.2691 150.047 25.2239 150.312 25.1211C150.577 25.0182 150.817 24.8591 151.018 24.6543C151.218 24.4496 151.374 24.2042 151.475 23.9336C151.575 23.6629 151.618 23.3731 151.602 23.084C151.602 21.8848 151.025 21.1105 148.855 19.3477L146.974 17.8096C145.47 16.5796 144.357 15.1088 144.357 13.0283C144.357 10.2454 146.397 8.34871 149.245 8.34863ZM126.778 8.33887C128.578 8.38499 130.003 9.06146 130.79 10.2607C131.577 11.4599 131.792 12.6646 131.747 14.8271L131.577 21.7402C131.522 23.9235 131.175 25.2211 130.408 26.2461C129.466 27.4502 128.062 28.0295 126.313 27.9834C124.563 27.9373 123.088 27.2344 122.336 26.0352C121.584 24.8361 121.334 23.6574 121.374 21.4951L121.529 14.5654C121.585 12.4027 121.93 11.0748 122.712 10.0498C123.604 8.87112 124.979 8.29281 126.778 8.33887ZM141.739 8.92676C141.84 8.91177 141.943 8.92083 142.04 8.95312C142.137 8.98543 142.225 9.04042 142.298 9.11328C142.371 9.1862 142.427 9.27565 142.46 9.37402C142.494 9.47231 142.504 9.57738 142.491 9.68066V10.3721C142.506 10.4709 142.499 10.5724 142.47 10.668C142.441 10.7635 142.392 10.8515 142.325 10.9248C142.259 10.9981 142.177 11.0552 142.086 11.0918C141.995 11.1284 141.897 11.1429 141.8 11.1357L137.788 11.5156C137.262 11.5157 137.036 11.9048 137.046 12.417L137.121 15.7793C137.122 15.8805 137.144 15.9808 137.185 16.0732C137.225 16.1656 137.283 16.2488 137.356 16.3174C137.428 16.386 137.514 16.4381 137.608 16.4717C137.701 16.5052 137.8 16.5197 137.899 16.5127L141.408 16.9375C141.508 16.9291 141.608 16.9435 141.702 16.9785C141.796 17.0136 141.882 17.0685 141.953 17.1406C142.024 17.2127 142.079 17.2997 142.114 17.3955C142.149 17.4914 142.163 17.5943 142.155 17.6963L142.13 17.876C142.129 18.0727 142.054 18.2613 141.921 18.4033C141.788 18.5454 141.606 18.6305 141.413 18.6396L137.929 19.2129C137.831 19.2193 137.735 19.2461 137.647 19.291C137.559 19.336 137.48 19.3992 137.416 19.4756C137.352 19.552 137.303 19.6405 137.274 19.7363C137.244 19.8321 137.233 19.9331 137.242 20.0332L137.342 24.3594C137.331 24.4598 137.343 24.5618 137.375 24.6572C137.407 24.7526 137.46 24.8398 137.528 24.9121C137.597 24.9845 137.681 25.0406 137.774 25.0762C137.866 25.1117 137.966 25.1253 138.065 25.1172L142.195 25.5322C142.396 25.5432 142.585 25.6298 142.728 25.7744C142.87 25.9189 142.956 26.1117 142.968 26.3164L142.973 26.9775C142.975 27.0782 142.957 27.1789 142.921 27.2725C142.885 27.3659 142.83 27.4509 142.761 27.5225C142.692 27.5941 142.609 27.6509 142.518 27.6895C142.427 27.7279 142.329 27.7478 142.231 27.7471L135.281 27.8906C135.084 27.8962 134.892 27.8224 134.747 27.6855C134.602 27.5486 134.514 27.3589 134.504 27.1572L134.109 9.6084C134.131 9.41236 134.216 9.22926 134.35 9.08691C134.484 8.94446 134.66 8.85034 134.851 8.81934L141.739 8.92676ZM63.9142 8.59473C64.1349 8.56973 64.3566 8.63385 64.5324 8.77246C64.7081 8.91103 64.8251 9.11345 64.8576 9.33789L68.9083 26.7275C68.9362 26.8272 68.9393 26.933 68.9171 27.0342C68.895 27.1352 68.8481 27.2287 68.7814 27.3066C68.7145 27.3846 68.6295 27.4447 68.5343 27.4805C68.4392 27.5162 68.3367 27.5269 68.2365 27.5117L67.3536 27.5635C67.137 27.5826 66.9216 27.5159 66.7511 27.3779C66.5806 27.2398 66.4679 27.0404 66.4367 26.8203L65.3283 24.2578C65.2856 24.0364 65.1678 23.8371 64.9952 23.6963C64.8226 23.5555 64.6066 23.4816 64.3859 23.4883L61.879 23.5811C61.6723 23.6129 61.4803 23.7097 61.3302 23.8584C61.1801 24.0072 61.0796 24.2008 61.0421 24.4111L60.1339 27.0459C60.1041 27.2592 60.0008 27.455 59.8429 27.5977C59.6849 27.7402 59.4823 27.8203 59.2716 27.8242L58.4142 27.876C58.3215 27.8816 58.2287 27.8643 58.1437 27.8262C58.0587 27.788 57.9836 27.7297 57.9249 27.6562C57.8663 27.5827 57.8253 27.4961 57.8058 27.4033C57.7863 27.3105 57.7886 27.2138 57.8126 27.1221L60.5704 9.44043C60.5748 9.33416 60.5999 9.22979 60.6447 9.13379C60.6896 9.03767 60.753 8.95124 60.8312 8.88086C60.9094 8.81046 61.0017 8.75697 61.1007 8.72363C61.1995 8.69047 61.3038 8.67848 61.4074 8.6875L63.9142 8.59473ZM18.3038 8.59473C18.5241 8.5685 18.7457 8.63163 18.921 8.77051C19.0963 8.90946 19.2113 9.11322 19.2413 9.33789L23.298 26.7119C23.3256 26.8084 23.3298 26.9102 23.3107 27.0088C23.2916 27.1073 23.25 27.1999 23.1886 27.2783C23.1271 27.3568 23.0472 27.4194 22.9572 27.46C22.8673 27.5004 22.769 27.5182 22.671 27.5117L21.7882 27.5625C21.5713 27.583 21.3545 27.5172 21.1837 27.3789C21.0131 27.2405 20.9012 27.0399 20.8712 26.8193L19.7579 24.2568C19.7162 24.035 19.5987 23.8353 19.4259 23.6943C19.2531 23.5534 19.0365 23.4806 18.8156 23.4883L16.3087 23.5801C16.1029 23.6129 15.912 23.7107 15.7628 23.8594C15.6137 24.0082 15.5138 24.2015 15.4767 24.4111L14.589 27.0352C14.5583 27.2479 14.4546 27.4425 14.297 27.585C14.1393 27.7275 13.9372 27.8085 13.7267 27.8135L12.8693 27.8652C12.7762 27.8721 12.6825 27.8561 12.5968 27.8184C12.5113 27.7806 12.436 27.7221 12.3771 27.6484C12.3181 27.5746 12.277 27.4869 12.2579 27.3936C12.2389 27.3002 12.2425 27.2031 12.2677 27.1113L14.9845 9.44043C14.9889 9.33398 15.0148 9.22896 15.0597 9.13281C15.1046 9.03681 15.1681 8.95117 15.2462 8.88086C15.3244 8.81048 15.4158 8.75697 15.5148 8.72363C15.6138 8.6903 15.7185 8.67744 15.8224 8.68652L18.3038 8.59473ZM51.5353 8.59961C55.0099 8.70211 56.8095 10.6502 56.7042 14.207C56.6441 16.3442 55.9728 17.8768 54.6642 18.7686C54.213 19.0761 54.1026 19.2812 54.2179 19.7168L55.8322 27.0557C55.8674 27.1408 55.8811 27.2342 55.8722 27.3262C55.8632 27.4179 55.832 27.5058 55.7814 27.582C55.7305 27.6585 55.6616 27.7214 55.5812 27.7637C55.5008 27.8059 55.4108 27.8264 55.3204 27.8242L54.7843 27.7783C54.5542 27.7879 54.3286 27.7116 54.1495 27.5635C53.9706 27.4154 53.8505 27.2057 53.8117 26.9736L51.5099 20.6338C51.3394 20.0958 51.1391 19.8757 50.5626 19.8604H50.3019C50.2014 19.8406 50.0977 19.8445 49.9992 19.873C49.9006 19.9016 49.81 19.9537 49.7345 20.0244C49.6591 20.095 49.601 20.1826 49.5646 20.2803C49.5282 20.3781 49.5141 20.4838 49.5245 20.5879L48.838 26.8662C48.8374 26.9651 48.8169 27.0626 48.7785 27.1533C48.7399 27.2441 48.6837 27.3265 48.6134 27.3945C48.5434 27.4622 48.4606 27.5146 48.3703 27.5488C48.2796 27.5831 48.1826 27.5986 48.0861 27.5938L47.6495 27.5479C47.5536 27.5492 47.4583 27.5294 47.3703 27.4902C47.2823 27.4511 47.2033 27.393 47.1388 27.3203C47.0744 27.2477 47.0257 27.1616 46.9962 27.0684C46.9668 26.9751 46.9573 26.8766 46.9679 26.7793V9.23535C46.9768 9.03589 47.0589 8.84679 47.1984 8.70703C47.3379 8.56728 47.5246 8.48741 47.7199 8.48242L51.5353 8.59961ZM113.572 8.63574C117.047 8.52299 118.958 10.3575 119.088 13.9092C119.158 16.0463 118.587 17.6151 117.328 18.5889C116.892 18.9271 116.791 19.101 116.937 19.5674L118.987 26.7422C119.029 26.8271 119.048 26.922 119.043 27.0166C119.038 27.1111 119.01 27.203 118.961 27.2832C118.912 27.3633 118.843 27.4293 118.762 27.4746C118.681 27.5199 118.589 27.5431 118.496 27.542L117.954 27.5938C117.728 27.6145 117.501 27.5506 117.317 27.4141C117.132 27.2775 117.003 27.0772 116.951 26.8506L114.275 20.6436C114.074 20.131 113.858 19.9053 113.272 19.9258H113.011C112.509 19.9258 112.258 20.1928 112.278 20.7002L111.968 27.0039C111.974 27.1026 111.961 27.2019 111.928 27.2949C111.895 27.3879 111.844 27.4729 111.777 27.5449C111.711 27.617 111.631 27.6747 111.542 27.7139C111.453 27.7529 111.358 27.7727 111.261 27.7725L110.328 27.8184C110.232 27.8256 110.136 27.8127 110.046 27.7793C109.956 27.7459 109.873 27.6932 109.804 27.625C109.735 27.5569 109.68 27.4747 109.645 27.3838C109.609 27.2926 109.593 27.1938 109.597 27.0957L109.05 9.55762C109.047 9.35768 109.118 9.16398 109.249 9.01562C109.38 8.8672 109.562 8.77565 109.757 8.75879L113.572 8.63574ZM32.1369 8.72266C32.234 8.72254 32.3307 8.74317 32.4201 8.78223C32.5092 8.82127 32.5895 8.87845 32.6564 8.9502C32.7234 9.02209 32.7758 9.1071 32.8097 9.2002C32.8435 9.29316 32.8584 9.39215 32.8536 9.49121L32.8341 10.9775C32.8322 11.0749 32.8104 11.1709 32.7716 11.2598C32.7328 11.3486 32.6772 11.4287 32.6076 11.4951C32.5379 11.5615 32.4558 11.613 32.3663 11.6465C32.277 11.6799 32.1821 11.6952 32.087 11.6904L29.9708 11.6387C29.8715 11.636 29.7726 11.6532 29.6798 11.6895C29.5871 11.7258 29.5019 11.7808 29.4298 11.8506C29.3577 11.9205 29.2994 12.0048 29.2589 12.0977C29.2185 12.1905 29.1961 12.2909 29.1935 12.3926L28.3566 26.9883C28.3414 27.1875 28.2525 27.3737 28.1085 27.5088C27.9643 27.6439 27.7749 27.7187 27.5792 27.7168L27.173 27.6602C26.9806 27.6509 26.7985 27.5669 26.6652 27.4248C26.5318 27.2827 26.4573 27.0934 26.4562 26.8965L26.296 12.2949C26.2722 12.1018 26.1861 11.9223 26.0519 11.7842C25.9177 11.6461 25.7426 11.5569 25.5538 11.5312L23.4376 11.4902C23.2427 11.4746 23.061 11.3837 22.9288 11.2363C22.7968 11.089 22.7239 10.8961 22.7257 10.6963L22.756 9.25586C22.7697 9.06046 22.8541 8.87688 22.9933 8.74219C23.1325 8.60752 23.3163 8.53168 23.5079 8.52832L32.1369 8.72266ZM106.187 9.00977C106.688 9.00978 106.919 9.27102 106.919 9.77832V10.4707C106.931 10.5693 106.921 10.6693 106.891 10.7637C106.86 10.8583 106.81 10.9455 106.742 11.0176C106.675 11.0896 106.593 11.145 106.502 11.1807C106.411 11.2163 106.314 11.2312 106.217 11.2236L102.101 11.3672C101.599 11.3672 101.348 11.7465 101.348 12.2539V15.6211C101.348 15.7217 101.368 15.8215 101.406 15.9141C101.445 16.0066 101.502 16.0907 101.573 16.1602C101.645 16.2296 101.729 16.2832 101.821 16.3184C101.914 16.3535 102.012 16.3691 102.11 16.3643L105.62 16.877C105.715 16.8735 105.809 16.8897 105.898 16.9248C105.986 16.96 106.067 17.0129 106.135 17.0811C106.203 17.1492 106.255 17.2313 106.291 17.3213C106.327 17.4112 106.344 17.5075 106.342 17.6045L106.312 17.7783C106.31 17.976 106.234 18.1659 106.098 18.3066C105.962 18.4471 105.778 18.5282 105.585 18.5322L102.101 19.0449C102.003 19.0501 101.906 19.0754 101.818 19.1191C101.729 19.1629 101.65 19.2244 101.585 19.2998C101.52 19.3752 101.471 19.4633 101.44 19.5586C101.408 19.6538 101.396 19.7544 101.403 19.8545L101.429 24.1797C101.416 24.2798 101.425 24.3824 101.455 24.4785C101.486 24.5743 101.536 24.662 101.604 24.7354C101.671 24.8088 101.754 24.8665 101.846 24.9033C101.938 24.9402 102.037 24.9562 102.136 24.9492L106.262 25.4609C106.462 25.4768 106.65 25.5669 106.79 25.7139C106.93 25.861 107.013 26.0557 107.024 26.2607L107.019 26.917C107.019 27.0174 107.001 27.1172 106.963 27.21C106.925 27.3026 106.869 27.3868 106.799 27.457C106.729 27.5272 106.645 27.5825 106.554 27.6191C106.463 27.6557 106.365 27.6727 106.267 27.6699L99.3224 27.7168C99.1259 27.7182 98.9362 27.6416 98.7941 27.5029C98.6519 27.3643 98.5686 27.1743 98.5607 26.9736L98.4454 9.44043C98.471 9.24384 98.5587 9.06062 98.6954 8.91992C98.8321 8.77936 99.0102 8.68853 99.2023 8.66113L106.187 9.00977ZM72.0577 8.61523C72.1604 8.608 72.2638 8.62296 72.3605 8.65918C72.4572 8.69547 72.5455 8.7527 72.6193 8.82617C72.6929 8.8996 72.7503 8.9882 72.7882 9.08594C72.8262 9.18391 72.8435 9.28925 72.839 9.39453L73.341 24.1963C73.3309 24.2959 73.342 24.3963 73.3732 24.4912C73.4044 24.5862 73.4548 24.6738 73.5216 24.7471C73.5885 24.8203 73.6703 24.8786 73.7609 24.917C73.8516 24.9554 73.9499 24.9732 74.048 24.9697H78.3351C78.4364 24.9565 78.5395 24.9674 78.6359 25.002C78.7323 25.0365 78.8197 25.0938 78.8908 25.1689C78.9617 25.244 79.0145 25.335 79.0451 25.4346C79.0756 25.5342 79.0829 25.6401 79.0665 25.7432V26.9434C79.0692 27.0422 79.0524 27.1406 79.0167 27.2324C78.9809 27.3245 78.9271 27.4085 78.8585 27.4785C78.7901 27.5485 78.7082 27.6031 78.6183 27.6396C78.5284 27.6762 78.4318 27.6942 78.3351 27.6914H71.1701C71.0742 27.6914 70.9792 27.6714 70.8908 27.6338C70.8023 27.5962 70.722 27.5411 70.6544 27.4717C70.5869 27.4021 70.5334 27.3193 70.4972 27.2285C70.4611 27.1379 70.4419 27.0412 70.4425 26.9434L70.9445 9.39453C70.939 9.29379 70.9533 9.19233 70.9874 9.09766C71.0216 9.00312 71.0747 8.91667 71.1427 8.84375C71.2108 8.7708 71.2931 8.71312 71.3839 8.67383C71.4748 8.63456 71.5724 8.6144 71.671 8.61523H72.0577ZM9.22377 8.61523C9.32343 8.60539 9.42416 8.61761 9.51869 8.65137C9.61311 8.68513 9.6997 8.73947 9.77162 8.81055C9.84346 8.88164 9.89954 8.96817 9.93568 9.06348C9.97178 9.15882 9.98686 9.26125 9.9806 9.36328L10.4826 26.9424C10.4702 27.141 10.3852 27.3274 10.2452 27.4658C10.1052 27.6042 9.91942 27.6845 9.72474 27.6904H8.31654C8.0846 27.6905 7.85811 27.6163 7.67005 27.4775C7.482 27.3387 7.34151 27.1422 7.26869 26.917L3.21693 16.9795C3.0615 16.6054 2.90638 16.631 2.90638 16.9795L2.40443 26.917C2.4087 27.0202 2.39242 27.1236 2.3556 27.2197C2.31876 27.3158 2.26218 27.4029 2.19056 27.4756C2.11888 27.5483 2.03291 27.6056 1.93861 27.6426C1.86812 27.6702 1.79394 27.6862 1.71888 27.6904H1.16419C1.09148 27.686 1.01947 27.6697 0.951304 27.6426C0.860658 27.6065 0.777898 27.5518 0.709117 27.4814C0.640321 27.4111 0.587151 27.3261 0.55189 27.2334C0.516691 27.1407 0.500753 27.0417 0.505015 26.9424L0.00306185 9.39355C-0.00641548 9.29157 0.00624047 9.18855 0.0391947 9.0918C0.0721656 8.99509 0.125091 8.90689 0.194468 8.83301C0.26397 8.75904 0.348191 8.70068 0.441538 8.66309C0.51153 8.6349 0.585494 8.61928 0.660288 8.61523H2.14466C2.37156 8.62184 2.59139 8.69622 2.77748 8.8291C2.96366 8.96207 3.10841 9.14761 3.19251 9.36328L7.26869 19.3311C7.42913 19.7052 7.58412 19.6796 7.58412 19.3311L8.08607 9.39355C8.08276 9.29301 8.09874 9.19258 8.13392 9.09863C8.16908 9.00486 8.22217 8.91916 8.29017 8.84668C8.35842 8.77405 8.44087 8.71554 8.53138 8.67578C8.62179 8.63611 8.71913 8.61587 8.81752 8.61523H9.22377ZM87.6056 8.61426C87.7994 8.63741 87.9798 8.72764 88.1173 8.86914C88.2547 9.0106 88.3411 9.1954 88.3624 9.39355L88.8644 15.7793C88.8776 15.9757 88.9581 16.1611 89.0919 16.3027C89.2258 16.4443 89.4042 16.5336 89.5958 16.5537H92.2081C92.3965 16.5181 92.5703 16.4251 92.7062 16.2871C92.8421 16.149 92.9347 15.9717 92.9708 15.7793L93.4718 9.39355C93.4877 9.19752 93.569 9.01297 93.7023 8.87109C93.8356 8.72921 94.0132 8.63833 94.2042 8.61426H95.1368C95.3215 8.64126 95.4923 8.72943 95.6242 8.86426C95.7561 8.99918 95.8419 9.17438 95.8683 9.36328V26.9424C95.8325 27.1313 95.741 27.3047 95.6056 27.4385C95.4702 27.5723 95.2975 27.6602 95.1115 27.6904H94.2042C94.0155 27.6742 93.8382 27.59 93.7042 27.4531C93.5703 27.3162 93.4878 27.1353 93.4718 26.9424L92.9708 20.1055C92.9627 19.8991 92.88 19.7021 92.7394 19.5537C92.5988 19.4055 92.4096 19.3157 92.2081 19.3008H89.5958C89.3943 19.3201 89.2069 19.4157 89.0714 19.5693C88.9358 19.7231 88.8623 19.9238 88.8644 20.1309L88.3624 26.9424C88.3356 27.1353 88.2466 27.3138 88.1095 27.4492C87.9724 27.5846 87.7951 27.6696 87.6056 27.6904H86.7228C86.5342 27.6741 86.3576 27.5898 86.2238 27.4531C86.0899 27.3162 86.0073 27.1353 85.9913 26.9424V9.39355C85.9948 9.1933 86.0724 9.00187 86.2081 8.85742C86.3438 8.71315 86.5274 8.62594 86.7228 8.61426H87.6056ZM126.729 11.1006C125.124 11.0545 124.011 12.0032 123.941 14.7246L123.776 21.5615C123.71 24.2623 124.708 25.1895 126.383 25.2305C128.057 25.2714 129.1 24.3339 129.165 21.6436L129.336 14.8008C129.401 12.0746 128.333 11.1467 126.729 11.1006ZM17.3615 13.1045C17.3012 12.9201 17.0904 12.8741 17.0753 13.1455L16.0929 20.2031C16.0028 20.6591 16.3486 20.8893 16.7697 20.874L18.2736 20.8232C18.7449 20.8232 18.9714 20.5562 18.8761 20.0488L17.3615 13.1045ZM62.9474 13.1055C62.8872 12.921 62.6763 12.8749 62.6613 13.1465L61.6583 20.1826C61.5731 20.6387 61.919 20.8698 62.3351 20.8545L63.839 20.8027C64.3103 20.8027 64.5358 20.5367 64.4406 20.0293L62.9474 13.1055ZM113.056 11.377H112.74C112.54 11.385 112.35 11.4734 112.213 11.623C112.076 11.7727 112.003 11.9719 112.008 12.1768L112.139 16.4512C112.147 16.6559 112.233 16.8492 112.379 16.9893C112.525 17.1293 112.721 17.2048 112.921 17.1992H113.236C115.428 17.1275 116.165 16.3279 116.095 14.165C116.025 12.0025 115.247 11.3052 113.056 11.377ZM50.5529 11.3164C50.4533 11.3123 50.3533 11.3287 50.2599 11.3643C50.1666 11.3998 50.0806 11.4539 50.0079 11.5234C49.9353 11.593 49.8769 11.6767 49.8361 11.7695C49.7953 11.8624 49.7732 11.9627 49.7706 12.0645L49.6447 16.3389C49.6419 16.5428 49.7178 16.7401 49.8556 16.8877C49.9934 17.0352 50.1826 17.1212 50.382 17.1279H50.6935C52.8892 17.1944 53.6714 16.441 53.7316 14.2783C53.7916 12.1158 53.0593 11.383 50.8634 11.3164H50.5529ZM155.989 6.61621C156.715 6.56013 157.444 6.65401 158.133 6.89258C158.822 7.13121 159.457 7.50958 160 8.00488C159.353 8.84541 158.185 10.0547 156.425 10.1982C155.943 10.2543 155.455 10.1803 155.01 9.9834C154.565 9.78643 154.178 9.47367 153.888 9.07617C153.796 8.96319 153.74 8.82466 153.726 8.67871C153.711 8.53266 153.74 8.38518 153.808 8.25586C154.015 7.82279 154.322 7.44769 154.701 7.16211C155.081 6.87649 155.523 6.6891 155.989 6.61621ZM153.376 0C153.933 0.683286 154.344 1.47857 154.581 2.33398C154.819 3.18918 154.877 4.08573 154.755 4.96582C154.644 5.55025 154.397 6.09922 154.036 6.56641C153.675 7.0335 153.21 7.40551 152.68 7.65137C152.532 7.7282 152.365 7.75929 152.2 7.74023C152.035 7.7211 151.879 7.65276 151.752 7.54395C151.306 7.14796 150.96 6.64791 150.743 6.08594C150.527 5.52379 150.447 4.91619 150.509 4.31543C150.678 3.43591 151.019 2.5999 151.512 1.8584C152.005 1.11705 152.639 0.485042 153.376 0Z" fill="#1D1D1B"/>
</svg>
